<svg xmlns="http://www.w3.org/2000/svg" width="140" height="139" viewBox="0 0 140 139">
    <defs>
        <linearGradient id="a" x1="-34.429%" y1="18.096%" y2="64.181%">
            <stop offset="0%" stop-color="#EF635A"/>
            <stop offset="100%" stop-color="#FF8A79"/>
        </linearGradient>
    </defs>
    <g fill="none" fill-rule="evenodd">
        <path fill="#FFF" fill-rule="nonzero" d="M18.427 97.792c0 2.938-1.414 4.448-4.166 4.448H0V78.187h14.261c2.752 0 4.166 1.51 4.166 4.448v15.157zm-14.512.941h9.242c.929 0 1.355-.455 1.355-1.446V83.14c0-.992-.426-1.447-1.355-1.447H3.915v17.04zm34.624 0v3.507H22.32V78.187h16.156v3.507h-12.24v5.857h12.05v3.507h-12.05v7.675h12.303zm18.248-13.772v-2.326c0-.654-.269-.94-.882-.94h-8.99c-.614 0-.882.286-.882.94v4.75c0 .454.165.638.566.638h11.514c1.636 0 2.494.89 2.494 2.595v8.858c0 1.816-.888 2.764-2.588 2.764H44.61c-1.7 0-2.588-.948-2.588-2.764v-4.01h3.915v2.326c0 .655.268.941.881.941h8.991c.614 0 .882-.286.882-.94v-5.457c0-.565-.226-.807-.755-.807H44.39c-1.49 0-2.273-.848-2.273-2.46V80.95c0-1.815.888-2.764 2.589-2.764h13.218c1.7 0 2.589.949 2.589 2.764v4.01h-3.726zm7.62 17.28V78.186h3.914v24.053h-3.915zm23.3 0H74.802c-1.7 0-2.588-.95-2.588-2.765V80.951c0-1.815.888-2.764 2.588-2.764H87.77c1.7 0 2.589.949 2.589 2.764v4.01h-3.915v-2.326c0-.654-.269-.94-.882-.94h-8.55c-.612 0-.88.286-.88.94v15.157c0 .655.268.941.88.941l8.637.013.795-.283v-6.226h-3.85V88.73h7.765v12.927l-.177.04-2.475.543zm22.57-24.054h3.916v24.053h-5.743L97.757 83.32v18.92h-3.6V78.187h5.427l10.693 18.92v-18.92zm22.734 20.546v3.507h-14.83V78.187h3.915v20.546h10.915zm3.074 3.507V78.187H140v24.053h-3.915z"/>
        <path fill="url(#a)" d="M76.607 38.961l2.518 4.393h31.045L94.427 70.07l2.425 4.23 20.824-35.339h-41.07zm-17.75 91.47l-12.58-21.34-4.95-.06 17.53 29.744 17.291-29.343-4.883-.06-12.409 21.058zm4.007-78.968l-11.163 19.75-.876-.06c-.208 0-5.189-.37-8.88-2.82-3.692-2.448-5.812-6.77-5.912-6.953l-.373-.768L53.346 38.07C44.37 25.001 28.234 1.903 29.074.412c1.115-1.13 18.42 20.71 28.124 32.748l7.518-9.583-4.4-10.019 7.54-11.28 12.565.082 1.639 1.083-7.364 10.999.04.026 4.705 3.102.034.022 7.364-10.998 1.632 1.076 4.947 11.473-7.543 11.284-11.05-.126-8.292 14.67c2.693 4.269 4.367 8.406 4.367 8.406l.048-.067 3.297 4.426-.347.468a9.526 9.526 0 0 1 5.446 4.037c1.152 1.759 1.49 7.191 1.423 10.39-1.233-2.69-2.164-3.525-5.543-5.195-2.89-1.414-3.203-5.536-3.233-6.716l-.272.37-3.293-4.43.045-.059s-2.672-1.942-5.607-5.138zM41.777 38.96l-2.664 4.404H7.551l15.578 26.401-2.492 4.115L.056 38.961h41.72zm42.622-11.314l5.908-8.823h-.022l-3.267-7.533-6.772 10.112-9.387-6.19 6.753-10.092v-.038L69.31 5.04l-5.86 8.783 4.448 10.148-28.992 36.958c.745 1.243 2.388 3.677 4.563 5.116 2.176 1.44 5.178 2.041 6.68 2.264l23.095-40.816 11.156.155zM44.541 64.638a3.11 3.11 0 0 1-.86-4.321 3.137 3.137 0 0 1 4.336-.862 3.11 3.11 0 0 1 .871 4.319 3.128 3.128 0 0 1-4.355.865h.008z" transform="translate(10.262)"/>
    </g>
</svg>
